<svg xmlns="http://www.w3.org/2000/svg" viewBox="0 0 100 100" fill="none" aria-hidden="true">
  <defs>
    <linearGradient id="bg" x1="0" y1="0" x2="1" y2="1">
      <stop offset="0" stop-color="#F7A24E"/>
      <stop offset="0.5" stop-color="#EE6F3C"/>
      <stop offset="1" stop-color="#E8597C"/>
    </linearGradient>
    <radialGradient id="fl" cx="0.4" cy="0.36" r="0.74">
      <stop offset="0" stop-color="#E47096"/>
      <stop offset="0.58" stop-color="#D5527A"/>
      <stop offset="1" stop-color="#C5446C"/>
    </radialGradient>
    <filter id="ds" x="-35%" y="-35%" width="170%" height="170%">
      <feDropShadow dx="0" dy="2" stdDeviation="2.2" flood-color="#5c2a10" flood-opacity="0.3"/>
    </filter>
  </defs>
  <rect width="100" height="100" rx="22" fill="url(#bg)"/>
  <circle cx="50" cy="50" r="40" fill="#FCF3E6" filter="url(#ds)"/>
  <circle cx="50" cy="50" r="31" fill="url(#fl)"/>
  <circle cx="50" cy="50" r="31" fill="none" stroke="#B23E62" stroke-opacity="0.22" stroke-width="1.4"/>
  <g stroke="#FCF3E6" stroke-width="2.6" stroke-linecap="round">
    <line x1="50" y1="44" x2="50" y2="20"/>
    <line x1="50" y1="44" x2="50" y2="20" transform="rotate(36 50 50)"/>
    <line x1="50" y1="44" x2="50" y2="20" transform="rotate(72 50 50)"/>
    <line x1="50" y1="44" x2="50" y2="20" transform="rotate(108 50 50)"/>
    <line x1="50" y1="44" x2="50" y2="20" transform="rotate(144 50 50)"/>
    <line x1="50" y1="44" x2="50" y2="20" transform="rotate(180 50 50)"/>
    <line x1="50" y1="44" x2="50" y2="20" transform="rotate(216 50 50)"/>
    <line x1="50" y1="44" x2="50" y2="20" transform="rotate(252 50 50)"/>
    <line x1="50" y1="44" x2="50" y2="20" transform="rotate(288 50 50)"/>
    <line x1="50" y1="44" x2="50" y2="20" transform="rotate(324 50 50)"/>
  </g>
  <circle cx="50" cy="50" r="4.6" fill="#FCF3E6"/>
  <ellipse cx="40" cy="36" rx="20" ry="15" fill="#fff" opacity="0.1"/>
</svg>
